<?xml version="1.0" encoding="utf-8"?>
<!-- Generator: Adobe Illustrator 16.0.0, SVG Export Plug-In . SVG Version: 6.00 Build 0)  -->
<!DOCTYPE svg PUBLIC "-//W3C//DTD SVG 1.1//EN" "http://www.w3.org/Graphics/SVG/1.1/DTD/svg11.dtd">
<svg version="1.1" id="Layer_1" xmlns="http://www.w3.org/2000/svg" xmlns:xlink="http://www.w3.org/1999/xlink" x="0px" y="0px"
	 width="106px" height="51px" viewBox="0 0 106 51" enable-background="new 0 0 106 51" xml:space="preserve">
<path fill="#DC0000" d="M21.2,38.4c0,2.8,1.8,4,4,4c2.9,0,4.9-1.801,5.6-3.9C31,38,31,37.5,31,37v-3.9C26,33.1,21.2,34.1,21.2,38.4z
	"/>
<path fill="#DC0000" d="M54.7,23.6c-4.5,0-7.1,4-7.1,9.2s2.5,8.9,7,8.9c2.9,0,5.4-2,6.101-5c0.2-0.601,0.2-1.3,0.2-2.101V30.4
	c0-0.601-0.101-1.301-0.2-1.9C60.2,25.9,58,23.6,54.7,23.6z"/>
<polygon fill="#DC0000" points="17.2,2.7 2.1,13.3 9.4,14.3 "/>
<path fill="#DC0000" d="M23.3,0L11.1,18.1L0,16.6v34.9h73.4V0H23.3z M32,46.8l-0.5-3.1h-0.2c-1.7,2.2-4.6,3.7-8.3,3.7
	c-5.6,0-8.8-4.101-8.8-8.301c0-7,6.3-10.6,16.6-10.6V28c0-1.8-0.7-4.9-5.7-4.9c-2.8,0-5.6,0.9-7.5,2.1l-1.4-4.6
	c2.1-1.3,5.7-2.5,10.1-2.5c9,0,11.6,5.7,11.6,11.9v10.1c0,2.5,0.1,5,0.5,6.7H32z M62,46.8L61.7,42.4H61.6
	c-1.699,3.1-5.1,5.1-9.1,5.1c-6.7,0-12-5.7-12-14.3c-0.1-9.4,5.8-15,12.5-15c3.9,0,6.6,1.6,7.9,3.6H61V6h7.1v33
	c0,2.9,0.101,6,0.2,7.9H62V46.8z"/>
<path fill="#FFFFFF" d="M85.9,11c0,2.1-1.601,3.8-4,3.8c-2.4,0-3.9-1.7-3.9-3.8c0-2.2,1.6-3.9,4-3.9C84.3,7.1,85.8,8.8,85.9,11z
	 M78.3,46.8v-28H85.4v28H78.3z"/>
<path fill="#FFFFFF" d="M99.2,11.6v7.2h6.7v5.3h-6.7v12.4c0,3.5,0.899,5.2,3.6,5.2c1.3,0,2-0.101,2.8-0.3L105.7,46.8
	c-1,0.4-2.9,0.7-5.101,0.7c-2.6,0-4.8-0.9-6.1-2.3c-1.6-1.601-2.2-4.2-2.2-7.9V24.1h-4v-5.3h4v-5.2L99.2,11.6z"/>
</svg>
