<?xml version="1.0" encoding="utf-8"?>
<!-- Generator: Adobe Illustrator 15.0.0, SVG Export Plug-In  -->
<!DOCTYPE svg PUBLIC "-//W3C//DTD SVG 1.1//EN" "http://www.w3.org/Graphics/SVG/1.1/DTD/svg11.dtd" [
	<!ENTITY ns_flows "http://ns.adobe.com/Flows/1.0/">
]>
<svg version="1.1"
	 xmlns="http://www.w3.org/2000/svg" xmlns:xlink="http://www.w3.org/1999/xlink" xmlns:a="http://ns.adobe.com/AdobeSVGViewerExtensions/3.0/"
	 x="0px" y="0px" width="609px" height="290px" viewBox="0 0 609 290" overflow="visible" enable-background="new 0 0 609 290"
	 xml:space="preserve">
<defs>
</defs>
<polygon fill="#DC0000" points="414.121,290.257 0,290.257 0,79.979 97.158,0 414.121,0 "/>
<path fill="#FFFFFF" d="M202.554,226.165c0,14.287,0.649,28.248,2.598,37.989H169.11l-2.922-17.533h-0.974
	c-9.416,12.338-25.977,21.104-46.756,21.104c-31.82,0-49.678-23.053-49.678-47.08c0-39.612,35.391-60.068,93.836-59.743v-2.598
	c0-10.39-4.222-27.599-32.145-27.599c-15.586,0-31.82,4.87-42.535,11.688l-7.793-25.975c11.689-7.144,32.145-13.962,57.146-13.962
	c50.652,0,65.263,32.145,65.263,66.887V226.165z M163.591,186.878c-28.248-0.325-55.198,5.52-55.198,29.547
	c0,15.585,10.066,22.729,22.729,22.729c16.234,0,27.6-10.391,31.496-21.755c0.974-2.922,0.974-5.844,0.974-8.767V186.878z"/>
<path fill="#FFFFFF" d="M384.059,33.623v186.049c0,16.234,0.648,33.768,1.299,44.482h-35.393l-1.947-25.001h-0.65
	c-9.416,17.533-28.572,28.572-51.301,28.572c-37.988,0-67.86-32.145-67.86-80.848c-0.325-52.925,32.794-84.42,70.782-84.42
	c21.754,0,37.34,8.767,44.482,20.455h0.65v-89.29H384.059z M344.121,171.941c0-3.246-0.324-7.468-0.975-10.715
	c-3.57-15.26-16.234-27.923-34.417-27.923c-25.65,0-39.937,22.729-39.937,51.95c0,29.223,14.286,50.327,39.611,50.327
	c16.234,0,30.521-11.039,34.418-28.248c0.975-3.571,1.299-7.468,1.299-11.688V171.941z"/>
<path fill="#808080" d="M484.459,61.871c0,11.689-8.766,21.43-22.727,21.43c-13.312,0-22.08-9.74-22.08-21.43
	c0-12.338,9.092-21.754,22.404-21.754C475.693,40.117,484.135,49.533,484.459,61.871z M441.926,264.154V106.029h39.938v158.125
	H441.926z"/>
<path fill="#808080" d="M570.828,65.443v40.586h37.99v29.872h-37.99v69.809c0,19.481,5.195,29.222,20.457,29.222
	c7.143,0,11.039-0.324,15.584-1.623l0.65,30.196c-5.846,2.272-16.561,4.221-28.898,4.221c-14.936,0-26.949-4.87-34.416-12.987
	c-8.768-9.092-12.664-23.702-12.664-44.482v-74.354h-22.404v-29.872h22.404V76.482L570.828,65.443z"/>
</svg>
