<!DOCTYPE svg><svg version="1.1" xmlns="http://www.w3.org/2000/svg" x="0px" y="0px" width="23px" height="23px" viewBox="0 0 23 23" overflow="visible" enable-background="new 0 0 23 23" xml:space="preserve"><path d="M11.0,0C4.9,0,0,4.9,0,11.0c0,6.1,4.9,11.0,11.0,11.0s11.0-4.9,11.0-11.0
C22.1,4.9,17.2,0,11.0,0z M15.9,15.9c-0.2,0.2-0.4,0.3-0.7,0.3s-0.5-0.1-0.7-0.3l-3.3-3.3
l-3.3,3.3c-0.2,0.2-0.4,0.3-0.7,0.3s-0.5-0.1-0.7-0.3c-0.4-0.4-0.4-1.0,0-1.5l3.3-3.3
L6.1,7.7c-0.4-0.4-0.4-1.0,0-1.5s1.0-0.4,1.5,0l3.3,3.3l3.3-3.3c0.4-0.4,1.0-0.4,1.5,0
s0.4,1.0,0,1.5l-3.3,3.3l3.3,3.3C16.4,14.8,16.4,15.5,15.9,15.9z"/></svg>
