<?xml version="1.0" encoding="utf-8"?>
<!-- Generator: Adobe Illustrator 15.0.0, SVG Export Plug-In  -->
<!DOCTYPE svg PUBLIC "-//W3C//DTD SVG 1.1//EN" "http://www.w3.org/Graphics/SVG/1.1/DTD/svg11.dtd" [
	<!ENTITY ns_flows "http://ns.adobe.com/Flows/1.0/">
]>
<svg version="1.1"
	 xmlns="http://www.w3.org/2000/svg" xmlns:xlink="http://www.w3.org/1999/xlink" xmlns:a="http://ns.adobe.com/AdobeSVGViewerExtensions/3.0/"
	 x="0px" y="0px" width="23px" height="23px" viewBox="-0.412 -0.412 23 23"
	 overflow="visible" enable-background="new -0.412 -0.412 23 23" xml:space="preserve">
<defs>
</defs>
<path d="M11.088,0C4.965,0,0,4.965,0,11.088s4.965,11.088,11.088,11.088s11.088-4.965,11.088-11.088S17.211,0,11.088,0z
	 M17.894,11.793l-4.375,5c-0.212,0.241-0.508,0.365-0.806,0.365c-0.251,0-0.502-0.087-0.705-0.265
	c-0.444-0.39-0.489-1.065-0.101-1.511l2.822-3.225h-9.94c-0.591,0-1.07-0.479-1.07-1.07s0.479-1.07,1.07-1.07h9.94l-2.822-3.225
	c-0.389-0.445-0.344-1.121,0.101-1.511c0.444-0.389,1.12-0.344,1.511,0.101l4.375,5C18.246,10.787,18.246,11.389,17.894,11.793z"/>
</svg>
