<!DOCTYPE svg><svg version="1.1" xmlns="http://www.w3.org/2000/svg" x="0px" y="0px" width="23px" height="23px" viewBox="0 0 23 23" overflow="visible" enable-background="new 0 0 23 23" xml:space="preserve"><path d="M11.0,0C4.9,0,0,4.9,0,11.0s4.9,11.0,11.0,11.0s11.0-4.9,11.0-11.0S17.2,0,11.0,0z
M17.8,11.7l-4.3,5c-0.2,0.2-0.5,0.3-0.8,0.3c-0.2,0-0.5-0.0-0.7-0.2
c-0.4-0.39-0.4-1.0-0.1-1.5l2.8-3.2h-9.94c-0.5,0-1.07-0.4-1.07-1.07s0.4-1.07,1.07-1.07h9.94l-2.8-3.2
c-0.3-0.4-0.3-1.1,0.1-1.5c0.4-0.3,1.12-0.3,1.5,0.1l4.3,5C18.2,10.7,18.2,11.3,17.8,11.7z"/></svg>
